:FULLY-SPECIFIED
:FORCE-ALL-JOINTS-BE-3DOF
:DEGREES
97
root 9.40665 16.2928 -23.653 3.3379 -2.32564 3.81586
lfemur -5.10329 0.469408 -29.318
ltibia 21.5154 0 0
lfoot -18.4381 7.38452 0
ltoes -0.897712 0 0
rfemur -32.9628 3.40832 15.9753
rtibia 46.344 0 0
rfoot -20.7959 -10.6863 0
rtoes -18.6273 0 0
lowerback -6.97427 -2.06944 -4.61442
upperback -0.285972 -2.47509 2.17198
thorax 3.91133 -1.33448 4.59984
lowerneck -21.0382 -4.92334 -12.6237
upperneck 19.7564 -5.5519 11.2405
head 10.4944 -2.21187 5.30847
lclavicle -1.28092e-14 2.8625e-14 0
lhumerus -20.563 -21.3389 87.3059
lradius 34.9489 0 0
lwrist 8.70795 0 0
lhand -15.5568 -25.3211 0
lfingers 7.12502 0 0
lthumb 10.6277 4.39014 0
rclavicle -1.28092e-14 2.8625e-14 0
rhumerus -43.5016 11.8454 -87.1022
rradius 38.2832 0 0
rwrist -21.7116 0 0
rhand -30.6228 -23.9346 0
rfingers 7.12502 0 0
rthumb -3.91891 -53.8783 0
98
root 9.4073 16.2931 -23.5272 3.30734 -1.93412 3.83005
lfemur -3.98276 0.433543 -29.295
ltibia 20.3381 0 0
lfoot -18.224 7.09828 0
ltoes -1.14426 0 0
rfemur -33.3503 3.81303 15.6512
rtibia 45.0809 0 0
rfoot -20.8015 -10.2821 0
rtoes -18.2782 0 0
lowerback -7.04109 -2.12623 -4.54369
upperback -0.286359 -2.55181 2.12394
thorax 3.95106 -1.37149 4.49843
lowerneck -20.8576 -4.95679 -12.6783
upperneck 19.8494 -5.61125 11.2366
head 10.5043 -2.24962 5.31007
lclavicle -1.4634e-14 2.41192e-14 0
lhumerus -20.6003 -21.8181 87.4141
lradius 35.5198 0 0
lwrist 9.12157 0 0
lhand -15.5326 -25.403 0
lfingers 7.12502 0 0
lthumb 10.651 4.30703 0
rclavicle -1.4634e-14 2.41192e-14 0
rhumerus -43.659 11.6471 -87.0241
rradius 38.1378 0 0
rwrist -21.5744 0 0
rhand -30.4705 -23.9705 0
rfingers 7.12502 0 0
rthumb -3.77182 -53.9166 0
99
root 9.40796 16.2933 -23.4013 3.27678 -1.54259 3.84424
lfemur -2.86222 0.397679 -29.272
ltibia 19.1609 0 0
lfoot -18.0099 6.81204 0
ltoes -1.39081 0 0
rfemur -33.7378 4.21773 15.3272
rtibia 43.8177 0 0
rfoot -20.8072 -9.87784 0
rtoes -17.9291 0 0
lowerback -7.10791 -2.18302 -4.47296
upperback -0.286745 -2.62854 2.07591
thorax 3.99079 -1.40851 4.39702
lowerneck -20.677 -4.99023 -12.7329
upperneck 19.9424 -5.6706 11.2327
head 10.5141 -2.28738 5.31168
lclavicle -1.64588e-14 1.96134e-14 0
lhumerus -20.6375 -22.2972 87.5222
lradius 36.0906 0 0
lwrist 9.5352 0 0
lhand -15.5084 -25.4849 0
lfingers 7.12502 0 0
lthumb 10.6744 4.22392 0
rclavicle -1.64588e-14 1.96134e-14 0
rhumerus -43.8164 11.4487 -86.946
rradius 37.9923 0 0
rwrist -21.4373 0 0
rhand -30.3182 -24.0064 0
rfingers 7.12502 0 0
rthumb -3.62473 -53.9549 0
100
root 9.40861 16.2936 -23.2754 3.24622 -1.15107 3.85844
lfemur -1.74169 0.361814 -29.2491
ltibia 17.9837 0 0
lfoot -17.7959 6.5258 0
ltoes -1.63736 0 0
rfemur -34.1253 4.62244 15.0031
rtibia 42.5545 0 0
rfoot -20.8128 -9.47361 0
rtoes -17.58 0 0
lowerback -7.17473 -2.23982 -4.40223
upperback -0.287132 -2.70526 2.02787
thorax 4.03052 -1.44552 4.29561
lowerneck -20.4963 -5.02368 -12.7875
upperneck 20.0354 -5.72994 11.2288
head 10.5239 -2.32513 5.31328
lclavicle -1.82836e-14 1.51076e-14 0
lhumerus -20.6747 -22.7764 87.6304
lradius 36.6615 0 0
lwrist 9.94882 0 0
lhand -15.4842 -25.5668 0
lfingers 7.12502 0 0
lthumb 10.6977 4.14081 0
rclavicle -1.82836e-14 1.51076e-14 0
rhumerus -43.9738 11.2504 -86.8679
rradius 37.8469 0 0
rwrist -21.3001 0 0
rhand -30.1658 -24.0423 0
rfingers 7.12502 0 0
rthumb -3.47764 -53.9933 0
101
root 9.40926 16.2939 -23.1496 3.21566 -0.759541 3.87263
lfemur -0.62115 0.325949 -29.2261
ltibia 16.8064 0 0
lfoot -17.5818 6.23955 0
ltoes -1.88391 0 0
rfemur -34.5127 5.02715 14.679
rtibia 41.2914 0 0
rfoot -20.8184 -9.06938 0
rtoes -17.2308 0 0
lowerback -7.24155 -2.29661 -4.3315
upperback -0.287519 -2.78198 1.97983
thorax 4.07024 -1.48253 4.1942
lowerneck -20.3157 -5.05713 -12.8422
upperneck 20.1283 -5.78929 11.2248
head 10.5338 -2.36289 5.31488
lclavicle -2.01083e-14 1.06019e-14 0
lhumerus -20.712 -23.2556 87.7386
lradius 37.2324 0 0
lwrist 10.3624 0 0
lhand -15.46 -25.6487 0
lfingers 7.12502 0 0
lthumb 10.721 4.0577 0
rclavicle -2.01083e-14 1.06019e-14 0
rhumerus -44.1312 11.0521 -86.7898
rradius 37.7015 0 0
rwrist -21.1629 0 0
rhand -30.0135 -24.0783 0
rfingers 7.12502 0 0
rthumb -3.33056 -54.0316 0
102
root 9.40992 16.2941 -23.0237 3.1851 -0.368016 3.88682
lfemur 0.499385 0.290085 -29.2031
ltibia 15.6291 0 0
lfoot -17.3677 5.95331 0
ltoes -2.13046 0 0
rfemur -34.9002 5.43185 14.355
rtibia 40.0282 0 0
rfoot -20.8241 -8.66515 0
rtoes -16.8817 0 0
lowerback -7.30837 -2.3534 -4.26077
upperback -0.287905 -2.85871 1.9318
thorax 4.10997 -1.51955 4.09279
lowerneck -20.1351 -5.09057 -12.8968
upperneck 20.2213 -5.84864 11.2209
head 10.5436 -2.40064 5.31649
lclavicle -2.19331e-14 6.09607e-15 0
lhumerus -20.7492 -23.7347 87.8467
lradius 37.8032 0 0
lwrist 10.7761 0 0
lhand -15.4358 -25.7306 0
lfingers 7.12502 0 0
lthumb 10.7444 3.97459 0
rclavicle -2.19331e-14 6.09607e-15 0
rhumerus -44.2886 10.8537 -86.7117
rradius 37.556 0 0
rwrist -21.0258 0 0
rhand -29.8612 -24.1142 0
rfingers 7.12502 0 0
rthumb -3.18347 -54.0699 0
103
root 9.41057 16.2944 -22.8979 3.15454 0.0235091 3.90101
lfemur 1.61992 0.25422 -29.1801
ltibia 14.4519 0 0
lfoot -17.1536 5.66707 0
ltoes -2.37701 0 0
rfemur -35.2877 5.83656 14.0309
rtibia 38.7651 0 0
rfoot -20.8297 -8.26092 0
rtoes -16.5326 0 0
lowerback -7.37519 -2.41019 -4.19004
upperback -0.288292 -2.93543 1.88376
thorax 4.1497 -1.55656 3.99138
lowerneck -19.9545 -5.12402 -12.9514
upperneck 20.3143 -5.90799 11.217
head 10.5535 -2.4384 5.31809
lclavicle -2.37579e-14 1.59028e-15 0
lhumerus -20.7865 -24.2139 87.9549
lradius 38.3741 0 0
lwrist 11.1897 0 0
lhand -15.4116 -25.8125 0
lfingers 7.12502 0 0
lthumb 10.7677 3.89148 0
rclavicle -2.37579e-14 1.59028e-15 0
rhumerus -44.446 10.6554 -86.6336
rradius 37.4106 0 0
rwrist -20.8886 0 0
rhand -29.7089 -24.1501 0
rfingers 7.12502 0 0
rthumb -3.03638 -54.1082 0
